<?xml version="1.0" encoding="utf-8"?>
<!-- Generator: Adobe Illustrator 21.1.0, SVG Export Plug-In . SVG Version: 6.00 Build 0)  -->
<svg version="1.1" id="Layer_1" xmlns="http://www.w3.org/2000/svg" xmlns:xlink="http://www.w3.org/1999/xlink" x="0px" y="0px"
	 width="228px" height="60px" viewBox="0 0 228 60" enable-background="new 0 0 228 60" xml:space="preserve">
<g>
	<g>
		<rect x="1.29" y="31.12" fill="#FFFFFF" width="27.42" height="27.42"/>
		<rect x="1.21" y="1.21" fill="#FFFFFF" width="27.42" height="27.42"/>
		<path fill="#FFFFFF" d="M31.21,31.12c15.13,0,27.41,12.26,27.42,27.4H31.21V31.12z"/>
		<path fill="#FFFFFF" d="M31.21,28.63c15.14,0,27.42-12.28,27.42-27.42l0,0H31.21V28.63z"/>
		<rect x="1.21" y="1.21" fill="#FFFFFF" width="27.42" height="27.42"/>
	</g>
	<path fill="#FFFFFF" d="M77.91,48.8c2.75,0.47,3.67,1.65,3.67,4.18v0.37c0,2.81-1.4,4.21-5.85,4.21c-0.9,0-2.62,0-5.34-0.04
		l0.4-2.07c2.34,0.07,3.45,0.04,4.94,0.04c2.9,0,3.54-0.47,3.54-2.22c0-1.52-0.29-2.04-2.22-2.4l-2.97-0.47
		c-2.95-0.47-3.65-1.78-3.65-4.05v-0.42c0-2.53,1.45-4.11,5.72-4.11c1.65,0,2.51,0,4.94,0.04l-0.4,2.07
		c-2.09-0.07-3.43-0.04-4.75-0.04c-2.59,0-3.21,0.47-3.21,2.13c0,1.4,0.29,1.98,2.11,2.26L77.91,48.8z"/>
	<path fill="#FFFFFF" d="M95.71,41.88l-0.42,2.07h-5.21v13.57h-2.31V43.94h-5.5l0.42-2.07L95.71,41.88z"/>
	<path fill="#FFFFFF" d="M96.89,51.22v-9.36h2.31v9.38c0,3.69,0.68,4.68,3.74,4.68s3.74-0.97,3.74-4.68v-9.37h2.31v9.36
		c0,4.31-1.03,6.7-6.04,6.7S96.89,55.53,96.89,51.22z"/>
	<path fill="#FFFFFF" d="M111.99,41.88h5.67c5.21,0,6.75,2.34,6.75,6.92v1.78c0,4.62-1.54,6.95-6.75,6.95h-5.67V41.88z M114.3,55.45
		h3.36c3.19,0,4.33-0.86,4.33-5.03v-1.47c0-4.21-1.14-5.01-4.33-5.01h-3.36V55.45z"/>
	<path fill="#FFFFFF" d="M129.4,41.88v15.63h-2.31V41.88H129.4z"/>
	<path fill="#FFFFFF" d="M132.08,50.69v-2c0-4.51,1.03-7.23,6.7-7.23c5.56,0,6.7,2.48,6.7,7.23v2c0,4.51-1.03,7.23-6.7,7.23
		C133.23,57.93,132.08,55.44,132.08,50.69z M143.07,50.61v-1.82c0-4.51-0.79-5.32-4.29-5.32s-4.29,0.75-4.29,5.32v1.82
		c0,4.51,0.79,5.32,4.29,5.32S143.08,55.17,143.07,50.61L143.07,50.61z"/>
	<path fill="#FFFFFF" d="M154.88,48.8c2.75,0.47,3.67,1.65,3.67,4.18v0.37c0,2.81-1.4,4.21-5.85,4.21c-0.9,0-2.62,0-5.34-0.04
		l0.4-2.07c2.34,0.07,3.45,0.04,4.94,0.04c2.9,0,3.54-0.47,3.54-2.22c0-1.52-0.29-2.04-2.22-2.4l-2.97-0.47
		c-2.95-0.47-3.65-1.78-3.65-4.05v-0.42c0-2.53,1.45-4.11,5.72-4.11c1.65,0,2.51,0,4.94,0.04l-0.4,2.07
		c-2.09-0.07-3.43-0.04-4.75-0.04c-2.6,0-3.21,0.47-3.21,2.13c0,1.4,0.29,1.98,2.11,2.26L154.88,48.8z"/>
	<polygon fill="#FFFFFF" points="76.31,13.55 86.55,2.31 92.22,2.31 80.68,14.81 93.52,28.72 87.03,28.72 76.31,16.77 76.31,28.72 
		71.34,28.72 71.34,2.31 76.31,2.31 	"/>
	<path fill="#FFFFFF" d="M96.64,20.71c0,3.56,0.63,4.37,4.21,4.37c1.74,0,3.82,0.04,7.08-0.07l-0.74,3.71
		c-2.75,0.11-4.21,0.07-6.55,0.07c-7.02,0-8.79-3.23-8.79-8.72V18c0-5.94,1.93-9.16,8.94-9.16c6.49,0,8.46,3.04,8.46,7.19v0.63
		c0,3.41-0.74,4.04-2.93,4.04L96.64,20.71z M96.64,17.19h7.95v-0.84c0-2.85-0.85-3.85-3.97-3.85c-3.37,0-4,0.96-4,4.71"/>
	<path fill="#FFFFFF" d="M112.66,31.35c2.78,0.11,4.34,0.07,6.12,0.07c3.37,0,4.6-0.94,4.6-4.52v-0.37c-1,0.81-2,1.45-5.27,1.45
		c-4.79,0-7.38-1.71-7.38-6.31V9.43h4.82v11.27c0,2.23,0.22,3.41,3.6,3.41c3.56,0,4.21-0.94,4.21-3.74V9.43h4.82v17.51
		c0,5.97-2.56,8.35-9.2,8.35c-2.08,0-3.56,0.04-7.12-0.07L112.66,31.35z"/>
	<polygon fill="#FFFFFF" points="149.05,23.75 152.57,9.43 157.17,9.43 151.46,28.72 146.64,28.72 143.26,15.25 139.85,28.72 
		134.95,28.72 129.32,9.43 134.18,9.43 137.51,23.67 141.19,9.43 145.56,9.43 	"/>
	<path fill="#FFFFFF" d="M175.6,18.07v2.01c0,7.12-2.56,9.23-9.2,9.23s-9.23-2.12-9.23-9.23v-2.01c0-7.12,2.56-9.23,9.23-9.23
		C173.08,8.84,175.6,10.95,175.6,18.07 M170.7,18c0-4.6-0.78-5.3-4.3-5.3c-3.53,0-4.34,0.71-4.34,5.3v2.19
		c0,4.56,0.78,5.27,4.34,5.27c3.56,0,4.3-0.71,4.3-5.27V18z"/>
	<path fill="#FFFFFF" d="M182.55,28.72h-4.83V16.03c0-4.93,2.86-6.68,7.79-6.68c1.87,0,3.08,0,4.37,0.04l-0.79,4
		c-1-0.04-2.34-0.07-3.12-0.07c-3.11,0-3.43,1.15-3.43,3.49V28.72z"/>
	<path fill="#FFFFFF" d="M198.79,28.72c-6.9,0-9.01-2.45-9.01-9.16V18c0-6.33,2.13-9.14,8.5-9.14c2.11,0,4,0.52,4.93,1.26V1.16h4.82
		v24.07c0,2.52-0.96,3.49-3.97,3.49H198.79z M203.2,24.86V17c0-3.52-0.89-4.3-4.34-4.3c-3.56,0-4.21,0.89-4.21,5.19v1.6
		c0,4.56,0.71,5.38,4.27,5.38L203.2,24.86z"/>
	<path fill="#FFFFFF" d="M220.44,17.04c4.49,0.41,5.56,2.85,5.56,5.45v0.56c0,3.74-2.56,5.75-8.09,5.75c-1.87,0-5.52,0.04-8.46-0.07
		l0.74-3.93c2.52,0.04,5.64,0.07,7.9,0.07c2.48,0,3.23-0.47,3.23-1.87c0-1.08-0.37-1.67-2.34-1.87l-4.08-0.33
		c-3.89-0.29-5.34-2.71-5.34-5.34v-0.51c0-3.52,2.19-5.56,7.86-5.56c2.11,0,4.45,0.04,8.16,0.07l-0.74,3.93
		c-4.38-0.11-6.31-0.07-7.83-0.07c-2.19,0-2.89,0.41-2.89,1.6s0.33,1.6,2.41,1.78L220.44,17.04z"/>
</g>
</svg>
